# xmcd
#
# Track frame offsets:
# 150
# 26531
# 49064
# 65701
# 93061
# 115244
# 137123
# 157995
# 175967
# 189311
# 198663
#
# Disc length: 2775 seconds
#
# Revision: 0
# Processed by: cddbd v1.5.2PL0 Copyright (c) Steve Scherf et al.
# Submitted via: Axialis_AX_CDPlayer 2.6
#
DISCID=930ad50b
DTITLE=Rusty Weir - Best Of Rusty Weir
DYEAR=1900
DGENRE=
TTITLE0=Coast Of Colorado
TTITLE1=Cuervo's Gold
TTITLE2=Don't It Make You Wanna Dance?
TTITLE3=Fannin' Fires
TTITLE4=I Heard You Been Laying My Old Lady
TTITLE5=Cowboy Who Loves To Sing The Blues
TTITLE6=Country Style
TTITLE7=The Devil Lives In Texas
TTITLE8=I Don't Wanna Lay This Guitar Down
TTITLE9=Kum-Bak Bar and Grill
TTITLE10=The Radio Song
EXTD=
EXTT0=
EXTT1=
EXTT2=
EXTT3=
EXTT4=
EXTT5=
EXTT6=
EXTT7=
EXTT8=
EXTT9=
EXTT10=
PLAYORDER=
